<?xml version="1.0" encoding="UTF-8"?>
<svg xmlns="http://www.w3.org/2000/svg" version="1.1" viewBox="0 0 135 135">
  <defs>
    <style>
      .cls-1 {
        fill: #fff;
        stroke: #000;
        stroke-opacity: 0;
      }
    </style>
  </defs>
  <!-- Generator: Adobe Illustrator 28.7.5, SVG Export Plug-In . SVG Version: 1.2.0 Build 176)  -->
  <g>
    <g id="Layer_1">
      <path class="cls-1" d="M5,5h5v5h-5v-5ZM10,5h5v5h-5v-5ZM15,5h5v5h-5v-5ZM20,5h5v5h-5v-5ZM25,5h5v5h-5v-5ZM30,5h5v5h-5v-5ZM35,5h5v5h-5v-5ZM45,5h5v5h-5v-5ZM55,5h5v5h-5v-5ZM65,5h5v5h-5v-5ZM70,5h5v5h-5v-5ZM85,5h5v5h-5v-5ZM95,5h5v5h-5v-5ZM100,5h5v5h-5v-5ZM105,5h5v5h-5v-5ZM110,5h5v5h-5v-5ZM115,5h5v5h-5v-5ZM120,5h5v5h-5v-5ZM125,5h5v5h-5v-5ZM5,10h5v5h-5v-5ZM35,10h5v5h-5v-5ZM50,10h5v5h-5v-5ZM55,10h5v5h-5v-5ZM60,10h5v5h-5v-5ZM65,10h5v5h-5v-5ZM70,10h5v5h-5v-5ZM95,10h5v5h-5v-5ZM125,10h5v5h-5v-5ZM5,15h5v5h-5v-5ZM15,15h5v5h-5v-5ZM20,15h5v5h-5v-5ZM25,15h5v5h-5v-5ZM35,15h5v5h-5v-5ZM45,15h5v5h-5v-5ZM50,15h5v5h-5v-5ZM55,15h5v5h-5v-5ZM70,15h5v5h-5v-5ZM75,15h5v5h-5v-5ZM95,15h5v5h-5v-5ZM105,15h5v5h-5v-5ZM110,15h5v5h-5v-5ZM115,15h5v5h-5v-5ZM125,15h5v5h-5v-5ZM5,20h5v5h-5v-5ZM15,20h5v5h-5v-5ZM20,20h5v5h-5v-5ZM25,20h5v5h-5v-5ZM35,20h5v5h-5v-5ZM45,20h5v5h-5v-5ZM50,20h5v5h-5v-5ZM55,20h5v5h-5v-5ZM65,20h5v5h-5v-5ZM70,20h5v5h-5v-5ZM80,20h5v5h-5v-5ZM85,20h5v5h-5v-5ZM95,20h5v5h-5v-5ZM105,20h5v5h-5v-5ZM110,20h5v5h-5v-5ZM115,20h5v5h-5v-5ZM125,20h5v5h-5v-5ZM5,25h5v5h-5v-5ZM15,25h5v5h-5v-5ZM20,25h5v5h-5v-5ZM25,25h5v5h-5v-5ZM35,25h5v5h-5v-5ZM45,25h5v5h-5v-5ZM60,25h5v5h-5v-5ZM65,25h5v5h-5v-5ZM70,25h5v5h-5v-5ZM75,25h5v5h-5v-5ZM80,25h5v5h-5v-5ZM85,25h5v5h-5v-5ZM95,25h5v5h-5v-5ZM105,25h5v5h-5v-5ZM110,25h5v5h-5v-5ZM115,25h5v5h-5v-5ZM125,25h5v5h-5v-5ZM5,30h5v5h-5v-5ZM35,30h5v5h-5v-5ZM55,30h5v5h-5v-5ZM60,30h5v5h-5v-5ZM75,30h5v5h-5v-5ZM85,30h5v5h-5v-5ZM95,30h5v5h-5v-5ZM125,30h5v5h-5v-5ZM5,35h5v5h-5v-5ZM10,35h5v5h-5v-5ZM15,35h5v5h-5v-5ZM20,35h5v5h-5v-5ZM25,35h5v5h-5v-5ZM30,35h5v5h-5v-5ZM35,35h5v5h-5v-5ZM45,35h5v5h-5v-5ZM55,35h5v5h-5v-5ZM65,35h5v5h-5v-5ZM75,35h5v5h-5v-5ZM85,35h5v5h-5v-5ZM95,35h5v5h-5v-5ZM100,35h5v5h-5v-5ZM105,35h5v5h-5v-5ZM110,35h5v5h-5v-5ZM115,35h5v5h-5v-5ZM120,35h5v5h-5v-5ZM125,35h5v5h-5v-5ZM55,40h5v5h-5v-5ZM65,40h5v5h-5v-5ZM80,40h5v5h-5v-5ZM85,40h5v5h-5v-5ZM5,45h5v5h-5v-5ZM10,45h5v5h-5v-5ZM15,45h5v5h-5v-5ZM20,45h5v5h-5v-5ZM35,45h5v5h-5v-5ZM45,45h5v5h-5v-5ZM55,45h5v5h-5v-5ZM60,45h5v5h-5v-5ZM65,45h5v5h-5v-5ZM75,45h5v5h-5v-5ZM80,45h5v5h-5v-5ZM85,45h5v5h-5v-5ZM90,46.7h5v3.3h-5v-3.3ZM105,45h5v5h-5v-5ZM110,45h5v5h-5v-5ZM115,45h5v5h-5v-5ZM125,45h5v5h-5v-5ZM10,50h5v5h-5v-5ZM15,50h5v5h-5v-5ZM20,50h5v5h-5v-5ZM25,50h5v5h-5v-5ZM40,50h5v5h-5v-5ZM55,50h5v5h-5v-5ZM65,50h5v5h-5v-5ZM70,50h5v5h-5v-5ZM75,50h5v5h-5v-5ZM100,50h5v5h-5v-5ZM120,50h5v5h-5v-5ZM5,55h5v5h-5v-5ZM10,55h5v5h-5v-5ZM20,55h5v5h-5v-5ZM35,55h5v5h-5v-5ZM50,55h5v5h-5v-5ZM55,55h5v5h-5v-5ZM60,55h5v5h-5v-5ZM65,55h5v5h-5v-5ZM75,55h5v5h-5v-5ZM85,55h5v5h-5v-5ZM95,55h5v5h-5v-5ZM100,55h5v5h-5v-5ZM10,60h5v5h-5v-5ZM15,60h5v5h-5v-5ZM20,60h5v5h-5v-5ZM30,60h5v5h-5v-5ZM40,60h5v5h-5v-5ZM50,60h5v5h-5v-5ZM55,60h5v5h-5v-5ZM70,60h5v5h-5v-5ZM75,60h5v5h-5v-5ZM80,60h5v5h-5v-5ZM85,60h5v5h-5v-5ZM95,60h5v5h-5v-5ZM105,60h5v5h-5v-5ZM110,60h5v5h-5v-5ZM115,60h5v5h-5v-5ZM20,65h5v5h-5v-5ZM35,65h5v5h-5v-5ZM45,65h5v5h-5v-5ZM50,65h5v5h-5v-5ZM55,65h5v5h-5v-5ZM65,65h5v5h-5v-5ZM70,65h5v5h-5v-5ZM75,65h5v5h-5v-5ZM90,65h5v5h-5v-5ZM95,65h5v5h-5v-5ZM105,65h5v5h-5v-5ZM115,65h5v5h-5v-5ZM120,65h5v5h-5v-5ZM125,65h5v5h-5v-5ZM10,70h5v5h-5v-5ZM15,70h5v5h-5v-5ZM25,70h5v5h-5v-5ZM30,70h5v5h-5v-5ZM45,70h5v5h-5v-5ZM60,70h5v5h-5v-5ZM65,70h5v5h-5v-5ZM80,70h5v5h-5v-5ZM85,70h5v5h-5v-5ZM90,70h5v5h-5v-5ZM95,70h5v5h-5v-5ZM100,70h5v5h-5v-5ZM105,70h5v5h-5v-5ZM125,70h5v5h-5v-5ZM10,75h5v5h-5v-5ZM15,75h5v5h-5v-5ZM35,75h5v5h-5v-5ZM55,75h5v5h-5v-5ZM60,75h5v5h-5v-5ZM70,75h5v5h-5v-5ZM85,75h5v5h-5v-5ZM90,75h5v5h-5v-5ZM105,75h5v5h-5v-5ZM115,75h5v5h-5v-5ZM120,75h5v5h-5v-5ZM5,80h5v5h-5v-5ZM30,80h5v5h-5v-5ZM40,80h5v5h-5v-5ZM55,80h5v5h-5v-5ZM60,80h5v5h-5v-5ZM85,80h5v5h-5v-5ZM90,80h5v5h-5v-5ZM95,80h5v5h-5v-5ZM100,80h5v5h-5v-5ZM105,80h5v5h-5v-5ZM125,80h5v5h-5v-5ZM15,85h5v5h-5v-5ZM35,85h5v5h-5v-5ZM40,85h5v5h-5v-5ZM50,85h5v5h-5v-5ZM70,85h5v5h-5v-5ZM80,85h5v5h-5v-5ZM85,85h5v5h-5v-5ZM90,85h5v5h-5v-5ZM95,85h5v5h-5v-5ZM100,85h5v5h-5v-5ZM105,85h5v5h-5v-5ZM110,85h5v5h-5v-5ZM115,85h5v5h-5v-5ZM120,85h5v5h-5v-5ZM125,85h5v5h-5v-5ZM45,90h5v5h-5v-5ZM50,90h5v5h-5v-5ZM55,90h5v5h-5v-5ZM85,90h5v5h-5v-5ZM105,90h5v5h-5v-5ZM115,90h5v5h-5v-5ZM125,90h5v5h-5v-5ZM5,95h5v5h-5v-5ZM10,95h5v5h-5v-5ZM15,95h5v5h-5v-5ZM20,95h5v5h-5v-5ZM25,95h5v5h-5v-5ZM30,95h5v5h-5v-5ZM35,95h5v5h-5v-5ZM65,95h5v5h-5v-5ZM70,95h5v5h-5v-5ZM85,95h5v5h-5v-5ZM95,95h5v5h-5v-5ZM105,95h5v5h-5v-5ZM115,95h5v5h-5v-5ZM120,95h5v5h-5v-5ZM125,95h5v5h-5v-5ZM5,100h5v5h-5v-5ZM35,100h5v5h-5v-5ZM55,100h5v5h-5v-5ZM60,100h5v5h-5v-5ZM80,100h5v5h-5v-5ZM85,100h5v5h-5v-5ZM105,100h5v5h-5v-5ZM5,105h5v5h-5v-5ZM15,105h5v5h-5v-5ZM20,105h5v5h-5v-5ZM25,105h5v5h-5v-5ZM35,105h5v5h-5v-5ZM50,105h5v5h-5v-5ZM55,105h5v5h-5v-5ZM60,105h5v5h-5v-5ZM65,105h5v5h-5v-5ZM75,105h5v5h-5v-5ZM85,105h5v5h-5v-5ZM90,105h5v5h-5v-5ZM95,105h5v5h-5v-5ZM100,105h5v5h-5v-5ZM105,105h5v5h-5v-5ZM110,105h5v5h-5v-5ZM125,105h5v5h-5v-5ZM5,110h5v5h-5v-5ZM15,110h5v5h-5v-5ZM20,110h5v5h-5v-5ZM25,110h5v5h-5v-5ZM35,110h5v5h-5v-5ZM45,110h5v5h-5v-5ZM50,110h5v5h-5v-5ZM55,110h5v5h-5v-5ZM60,110h5v5h-5v-5ZM70,110h5v5h-5v-5ZM75,110h5v5h-5v-5ZM90,110h5v5h-5v-5ZM95,110h5v5h-5v-5ZM105,110h5v5h-5v-5ZM110,110h5v5h-5v-5ZM115,110h5v5h-5v-5ZM120,110h5v5h-5v-5ZM125,110h5v5h-5v-5ZM5,115h5v5h-5v-5ZM15,115h5v5h-5v-5ZM20,115h5v5h-5v-5ZM25,115h5v5h-5v-5ZM35,115h5v5h-5v-5ZM45,115h5v5h-5v-5ZM60,115h5v5h-5v-5ZM75,115h5v5h-5v-5ZM85,115h5v5h-5v-5ZM90,115h5v5h-5v-5ZM95,115h5v5h-5v-5ZM105,115h5v5h-5v-5ZM115,115h5v5h-5v-5ZM120,115h5v5h-5v-5ZM5,120h5v5h-5v-5ZM35,120h5v5h-5v-5ZM45,120h5v5h-5v-5ZM50,120h5v5h-5v-5ZM60,120h5v5h-5v-5ZM70,120h5v5h-5v-5ZM90,120h5v5h-5v-5ZM95,120h5v5h-5v-5ZM105,120h5v5h-5v-5ZM115,120h5v5h-5v-5ZM5,125h5v5h-5v-5ZM10,125h5v5h-5v-5ZM15,125h5v5h-5v-5ZM20,125h5v5h-5v-5ZM25,125h5v5h-5v-5ZM30,125h5v5h-5v-5ZM35,125h5v5h-5v-5ZM45,125h5v5h-5v-5ZM50,125h5v5h-5v-5ZM55,125h5v5h-5v-5ZM60,125h5v5h-5v-5ZM70,125h5v5h-5v-5ZM75,125h5v5h-5v-5ZM95,125h5v5h-5v-5ZM100,125h5v5h-5v-5ZM105,125h5v5h-5v-5ZM110,125h5v5h-5v-5ZM115,125h5v5h-5v-5ZM120,125h5v5h-5v-5ZM125,125h5v5h-5v-5Z"/>
    </g>
  </g>
</svg>