<?xml version="1.0" encoding="utf-8"?>
<!-- Generator: Adobe Illustrator 28.2.0, SVG Export Plug-In . SVG Version: 6.00 Build 0)  -->
<svg version="1.1" id="Layer_1" xmlns="http://www.w3.org/2000/svg" xmlns:xlink="http://www.w3.org/1999/xlink" x="0px" y="0px"
	 viewBox="0 0 185.9 82.6" style="enable-background:new 0 0 185.9 82.6;" xml:space="preserve">
<style type="text/css">
	.st0{fill:#FFFFFF;}
	.st1{fill:#E14F3D;}
</style>
<g>
	<path class="st0" d="M153.2,41l10.2-10.2c0.2-0.2,0.3-0.5,0.3-0.8v-7.2c0-0.5-0.6-0.8-1-0.4l-19.5,19.5l0,0h8.7
		c0.2,0,0.3-0.1,0.4-0.2"/>
	<path class="st0" d="M140.8,44.5l-7.5,7.5c-0.2,0.2-0.3,0.5-0.3,0.8V60c0,0.5,0.6,0.8,1,0.4l15.9-15.9H140.8z"/>
	<path class="st1" d="M146.1,35.6l-4.5-4.5c-0.2-0.2-0.5-0.3-0.8-0.3h-7.2c-0.5,0-0.8,0.6-0.4,1l8.4,8.4L146.1,35.6z"/>
	<path class="st0" d="M149.6,48.2l4.5,4.5c0.2,0.2,0.5,0.3,0.8,0.3h7.2c0.5,0,0.8-0.6,0.4-1l-8.4-8.4L149.6,48.2z"/>
	<path class="st0" d="M23.9,53c-1.2,0-1.8-0.6-1.8-1.8V32.8c0-1.2,0.6-1.8,1.8-1.8s1.8,0.6,1.8,1.8v1.7c0.9-1.2,1.9-2,3.3-2.6
		c1.3-0.6,2.8-0.9,4.5-0.9c1.2,0,1.8,0.6,1.8,1.8c0,1.2-0.6,1.8-1.8,1.8c-2.5,0-4.4,0.5-5.7,1.4c-1.3,0.9-2,2.1-2.1,3.7v11.5
		C25.7,52.4,25.1,53,23.9,53"/>
	<path class="st0" d="M47.8,34.6c-1.9,0-3.2,0.3-3.8,1s-1,2-1,3.9v0.3h13.3v-0.3c0-1.9-0.3-3.2-1-3.8c-0.7-0.7-2-1-3.8-1H47.8z
		 M42.9,43.5v1c0,1.9,0.3,3.1,1,3.8c0.7,0.7,2,1,3.8,1h3.6c1.5,0,2.6-0.1,3.3-0.4c0.7-0.3,1.2-0.8,1.4-1.5c0.2-0.5,0.4-1,0.7-1.3
		c0.3-0.3,0.7-0.4,1.3-0.4c0.6,0,1.1,0.2,1.4,0.5c0.3,0.3,0.4,0.8,0.3,1.4c-0.3,1.8-1.2,3.1-2.6,4c-1.4,0.9-3.3,1.3-5.8,1.3h-3.6
		c-2.9,0-5-0.7-6.4-2.1c-1.4-1.4-2.1-3.5-2.1-6.4v-5c0-2.9,0.7-5.1,2.1-6.5c1.4-1.4,3.5-2.1,6.4-2h3.6c2.9,0,5,0.7,6.4,2.1
		c1.4,1.4,2.1,3.5,2.1,6.4v2.2c0,1.2-0.6,1.8-1.8,1.8H42.9z"/>
	<path class="st0" d="M76.5,53c-2.9,0-5-0.7-6.3-2c-1.4-1.4-2-3.5-2-6.3v-10H66c-1.2,0-1.8-0.6-1.8-1.8c0-1.2,0.6-1.8,1.8-1.8h2.1
		v-3.2c0-1.2,0.6-1.8,1.8-1.8c1.2,0,1.8,0.6,1.8,1.8V31h5c1.2,0,1.8,0.6,1.8,1.8c0,1.2-0.6,1.8-1.8,1.8h-5v10c0,1.8,0.3,3.1,1,3.7
		c0.7,0.6,1.9,1,3.7,1c0.6,0,1,0.1,1.3,0.4c0.3,0.3,0.5,0.8,0.5,1.4C78.3,52.4,77.7,53,76.5,53"/>
	<path class="st0" d="M90.7,49.3h2.4c1.1,0,2.1-0.1,3-0.3c0.9-0.2,1.7-0.6,2.4-1.1c0.7-0.5,1.1-1.3,1.3-2.2v-3.5h-9.2
		c-1.4,0-2.4,0.2-2.8,0.7c-0.5,0.5-0.7,1.4-0.7,2.8c0,1.4,0.2,2.4,0.7,2.8C88.4,49.1,89.3,49.3,90.7,49.3 M90.7,53
		c-2.4,0-4.2-0.6-5.4-1.8c-1.2-1.2-1.8-3-1.8-5.4c0-2.4,0.6-4.2,1.8-5.4c1.2-1.2,3-1.8,5.4-1.8h9.2c-0.1-1.5-0.5-2.6-1.2-3.1
		c-0.7-0.6-1.9-0.8-3.6-0.8h-2.5c-1.4,0-2.5,0.1-3.2,0.3c-0.7,0.2-1.2,0.5-1.5,1.1c-0.3,0.6-0.5,1-0.8,1.3c-0.3,0.2-0.7,0.3-1.2,0.3
		c-0.6,0-1.1-0.2-1.4-0.5c-0.3-0.3-0.4-0.8-0.3-1.4c0.4-1.6,1.3-2.8,2.7-3.6c1.4-0.8,3.3-1.1,5.8-1.1h2.5c2.9,0,5,0.7,6.4,2.1
		c1.4,1.4,2.1,3.5,2.1,6.4v11.7c0,1.2-0.6,1.8-1.8,1.8c-1.2,0-1.8-0.6-1.8-1.8v-1C98.4,52,96.1,53,93.2,53H90.7z"/>
	<path class="st0" d="M112.2,53c-1.2,0-1.8-0.6-1.8-1.8V32.8c0-1.2,0.6-1.8,1.8-1.8c1.2,0,1.8,0.6,1.8,1.8v18.3
		C114,52.4,113.4,53,112.2,53 M111.6,27.5c-1.4,0-2.1-0.7-2.1-2.1v-1.3c0-1.4,0.7-2,2.1-2h1.3c1.3,0,2,0.7,2,2v1.3
		c0,1.4-0.7,2.1-2,2.1H111.6z"/>
	<path class="st0" d="M127.8,53c-2.2,0-3.9-0.5-4.9-1.6c-1.1-1.1-1.6-2.7-1.6-4.9V24.3c0-1.2,0.6-1.8,1.8-1.8c1.2,0,1.8,0.6,1.8,1.8
		v22.1c0,1.2,0.2,2,0.6,2.3c0.4,0.4,1.2,0.6,2.3,0.6c1.2,0,1.9,0.6,1.9,1.8C129.7,52.4,129,53,127.8,53"/>
</g>
</svg>
