<?xml version="1.0" encoding="UTF-8"?>
<svg id="Layer_1" data-name="Layer 1" xmlns="http://www.w3.org/2000/svg" viewBox="0 0 114.21 143.39">
  <defs>
    <style>
      .cls-1 {
        fill: #fff;
      }

      .cls-2 {
        fill: #e14f3c;
      }

      .cls-3 {
        fill: #e14f3d;
      }
    </style>
  </defs>
  <path class="cls-1" d="M75.16,69.55l37.81-37.81c.79-.79,1.24-1.87,1.24-2.99V2.12c0-1.88-2.28-2.83-3.61-1.5L38.38,72.84l.14.14h32.35c.56,0,1.1-.22,1.5-.62"/>
  <path class="cls-1" d="M29.03,82.19L1.24,109.99c-.79.79-1.24,1.87-1.24,2.99v26.64c0,1.88,2.28,2.83,3.61,1.5l58.92-58.92H29.03Z"/>
  <path class="cls-3" d="M48.58,49.55l-16.61-16.61c-.79-.79-1.87-1.24-2.99-1.24H2.35c-1.88,0-2.83,2.28-1.5,3.61l30.98,30.98,16.75-16.75h0Z"/>
  <path class="cls-1" d="M61.67,96.13l16.61,16.61c.79.79,1.87,1.24,2.99,1.24h26.63c1.88,0,2.83-2.28,1.5-3.61l-30.98-30.98-16.75,16.75h0Z"/>
  <path class="cls-2" d="M111.88,137.33c.45,0,.77.09.94.26s.26.49.26.94v.18h-3.19v-.18c0-.46.09-.78.26-.95s.49-.26.94-.24h.8ZM113.38,139.32c.21,0,.3-.1.3-.3v-.49c0-.62-.15-1.08-.44-1.37s-.75-.44-1.37-.44h-.8c-.62,0-1.08.13-1.37.43s-.44.75-.44,1.39v1.11c0,.62.15,1.07.44,1.36.29.29.75.44,1.37.44h.8c.55,0,.97-.1,1.27-.29s.46-.5.52-.9c.01-.11,0-.18-.06-.23-.05-.05-.13-.09-.23-.09s-.17.02-.22.07-.09.12-.11.22c-.04.22-.15.38-.33.47s-.46.13-.85.13h-.8c-.45,0-.75-.09-.94-.26-.17-.17-.26-.49-.26-.92v-.32h3.52ZM106.21,141.43c.49,0,.85-.09,1.11-.24.26-.16.41-.41.47-.75.02-.11,0-.18-.06-.24s-.13-.09-.24-.09c-.1,0-.17.02-.21.07-.05.05-.09.12-.11.21-.04.16-.13.27-.28.33s-.38.1-.68.1h-.8c-.45,0-.75-.09-.94-.26-.17-.17-.26-.49-.26-.94v-1.11c0-.45.09-.77.26-.94s.49-.26.94-.24h.8c.3,0,.54.04.68.1.15.06.24.17.28.33.02.09.06.16.11.21.05.05.11.07.21.07.11,0,.19-.02.24-.09.06-.06.07-.13.06-.23-.06-.34-.22-.6-.47-.75-.26-.16-.63-.24-1.11-.24h-.8c-.62,0-1.08.13-1.37.43s-.44.75-.44,1.37v1.11c0,.62.15,1.08.44,1.37s.75.44,1.37.44h.8ZM98.3,141.13v-2.96c.04-.29.21-.5.49-.64.29-.13.67-.21,1.13-.21h.27c.45,0,.75.09.94.26.17.17.26.49.26.94v2.6c0,.21.1.3.3.3s.3-.1.3-.3v-2.6c0-.62-.15-1.08-.44-1.37s-.75-.44-1.37-.44h-.27c-.77,0-1.3.22-1.62.67v-.37c0-.21-.1-.3-.3-.3s-.3.1-.3.3v4.11c0,.21.1.3.3.3s.3-.1.3-.3M94.25,137.33c.45,0,.77.09.94.26s.26.49.26.94v.18h-3.19v-.18c0-.46.09-.78.26-.95s.49-.26.94-.24h.8ZM95.76,139.32c.21,0,.3-.1.3-.3v-.49c0-.62-.15-1.08-.44-1.37s-.75-.44-1.37-.44h-.8c-.62,0-1.08.13-1.37.43s-.44.75-.44,1.39v1.11c0,.62.15,1.07.44,1.36.29.29.75.44,1.37.44h.8c.55,0,.97-.1,1.27-.29s.46-.5.52-.9c.01-.11,0-.18-.06-.23-.05-.05-.13-.09-.23-.09s-.17.02-.22.07-.09.12-.11.22c-.04.22-.15.38-.33.47s-.46.13-.85.13h-.8c-.45,0-.75-.09-.94-.26-.17-.17-.26-.49-.26-.92v-.32h3.52ZM90.02,141.13v-4.11c0-.21-.1-.3-.3-.3s-.3.1-.3.3v4.11c0,.21.1.3.3.3s.3-.1.3-.3M89.84,135.86c.24,0,.37-.13.37-.39v-.24c0-.26-.12-.38-.37-.38h-.24c-.26,0-.38.12-.38.38v.24c0,.26.12.39.38.39h.24ZM84.12,140.56c-.17-.17-.26-.49-.26-.94v-1.11c0-.45.09-.75.26-.94.17-.17.49-.26.94-.26h2v2.63c0,.29-.15.51-.45.66s-.69.22-1.17.22h-.37c-.45,0-.75-.09-.94-.26M85.42,141.43c.41,0,.75-.05,1.01-.16.27-.11.46-.26.61-.45v.3c0,.21.1.3.3.3s.3-.1.3-.3v-6.18c0-.21-.1-.3-.3-.3s-.3.1-.3.3v1.78h-2c-.62,0-1.08.15-1.37.44s-.44.75-.44,1.37v1.11c0,.62.15,1.08.44,1.37s.75.44,1.37.44h.37v-.02ZM80.97,137.03v2.96c-.04.29-.19.5-.49.63s-.67.21-1.13.21h-.27c-.45,0-.75-.09-.94-.26-.17-.17-.26-.49-.26-.94v-2.6c0-.21-.1-.3-.3-.3s-.3.1-.3.3v2.6c0,.62.15,1.08.44,1.37s.75.44,1.37.44h.27c.77,0,1.3-.22,1.62-.67v.37c0,.21.1.3.3.3s.3-.1.3-.3v-4.11c0-.21-.1-.3-.3-.3s-.3.1-.3.3M72.12,140.63c-.12-.12-.19-.37-.19-.72s.06-.6.19-.72c.12-.12.36-.19.72-.19h2.17v.83c-.04.24-.12.44-.28.58-.15.15-.34.24-.56.3-.23.06-.49.1-.78.1h-.55c-.35,0-.58-.06-.72-.19M73.39,141.43c.77,0,1.3-.23,1.62-.71v.4c0,.21.1.3.3.3s.3-.1.3-.3v-2.6c0-.62-.15-1.08-.44-1.37s-.75-.44-1.37-.44h-.56c-.56,0-.99.09-1.28.26-.3.17-.47.44-.54.82-.01.1,0,.17.06.23s.13.09.23.09.17-.02.21-.06c.05-.05.09-.11.12-.21.05-.18.17-.3.35-.38s.46-.11.85-.11h.56c.43,0,.73.07.91.23s.27.44.28.84h-2.17c-.51,0-.9.12-1.14.37-.24.24-.36.63-.36,1.16s.12.9.36,1.14.63.37,1.14.37h.55ZM65.34,141.13v-2.41c.02-.44.19-.78.51-1.02s.75-.37,1.33-.37c.21,0,.3-.1.3-.3s-.1-.3-.3-.3c-.41,0-.79.09-1.09.24-.32.16-.56.39-.74.69v-.62c0-.21-.1-.3-.3-.3s-.3.1-.3.3v4.11c0,.21.1.3.3.3s.3-.1.3-.3M62.34,137.03v2.96c-.04.29-.19.5-.49.63s-.67.21-1.13.21h-.27c-.45,0-.75-.09-.94-.26-.17-.17-.26-.49-.26-.94v-2.6c0-.21-.1-.3-.3-.3s-.3.1-.3.3v2.6c0,.62.15,1.08.44,1.37s.75.44,1.37.44h.27c.77,0,1.3-.22,1.62-.67v.37c0,.21.1.3.3.3s.3-.1.3-.3v-4.11c0-.21-.1-.3-.3-.3s-.3.1-.3.3M53.24,138.53c0-.3.04-.55.11-.72s.19-.29.38-.37c.17-.07.41-.11.71-.11h.8c.45,0,.77.09.94.26s.26.49.26.94v1.11c0,.45-.09.75-.26.94-.17.17-.49.26-.94.26h-.8c-.45,0-.75-.09-.94-.26-.17-.17-.26-.49-.26-.92v-1.11h0ZM55.23,141.43c.62,0,1.08-.15,1.37-.44s.44-.75.44-1.37v-1.11c0-.62-.15-1.08-.44-1.37s-.75-.44-1.37-.44h-.8c-.62,0-1.08.15-1.37.43-.29.29-.44.75-.44,1.37v1.11c0,.62.15,1.07.44,1.36.29.29.75.44,1.37.44h.8v.02ZM49.66,143.39c.44,0,.77-.11.99-.32.21-.22.32-.55.32-.99v-5.06c0-.21-.1-.3-.3-.3s-.3.1-.3.3v2.65c0,.39-.13.68-.39.86-.27.19-.67.29-1.23.29h-.34c-.44,0-.74-.09-.91-.24-.17-.17-.26-.46-.26-.91v-2.65c0-.21-.1-.3-.3-.3s-.3.1-.3.3v2.65c0,.61.15,1.06.43,1.34.29.29.74.43,1.35.43h.34c.35,0,.67-.05.94-.15s.5-.27.69-.54v1.3c0,.27-.05.46-.15.56-.1.1-.28.15-.55.15h-1.75c-.27,0-.45-.05-.55-.15s-.15-.28-.15-.56c0-.21-.1-.3-.3-.3s-.3.1-.3.3c0,.45.11.78.32.99.21.22.54.32.99.32h1.75v.02ZM40.32,137.33c.45,0,.77.09.94.26s.26.49.26.94v.18h-3.19v-.18c0-.46.09-.78.26-.95s.49-.26.94-.24h.8ZM41.81,139.32c.21,0,.3-.1.3-.3v-.49c0-.62-.15-1.08-.44-1.37s-.75-.44-1.37-.44h-.8c-.62,0-1.08.13-1.37.43s-.44.75-.44,1.39v1.11c0,.62.15,1.07.44,1.36.29.29.75.44,1.37.44h.8c.55,0,.97-.1,1.27-.29s.46-.5.52-.9c.01-.11,0-.18-.06-.23-.05-.05-.13-.09-.23-.09s-.17.02-.22.07-.09.12-.11.22c-.04.22-.15.38-.33.47-.18.09-.46.13-.85.13h-.8c-.45,0-.75-.09-.94-.26-.17-.17-.26-.49-.26-.92v-.32h3.52ZM36.46,141.13c0-.11-.02-.18-.07-.23-.05-.05-.13-.07-.23-.07-.44,0-.74-.09-.91-.24-.17-.17-.26-.46-.26-.91v-2.34h1.19c.21,0,.3-.1.3-.3s-.1-.3-.3-.3h-1.19v-.94c0-.21-.1-.3-.3-.3s-.3.1-.3.3v.94h-.55c-.21,0-.3.1-.3.3s.1.3.3.3h.55v2.34c0,.61.15,1.06.43,1.34.29.29.74.43,1.35.43.21,0,.32-.1.32-.3M32.15,141.13v-4.11c0-.21-.1-.3-.3-.3s-.3.1-.3.3v4.11c0,.21.1.3.3.3s.3-.1.3-.3M31.97,135.86c.24,0,.36-.13.36-.39v-.24c0-.26-.12-.38-.36-.38h-.24c-.26,0-.38.12-.38.38v.24c0,.26.12.39.38.39h.24ZM28.39,141.43c.49,0,.85-.09,1.11-.24.26-.16.41-.41.47-.75.02-.11,0-.18-.06-.24s-.13-.09-.24-.09c-.1,0-.17.02-.21.07-.05.05-.09.12-.11.21-.04.16-.13.27-.28.33-.15.06-.38.1-.68.1h-.8c-.45,0-.75-.09-.94-.26s-.26-.49-.26-.94v-1.11c0-.45.09-.77.26-.94s.49-.26.94-.24h.8c.3,0,.54.04.68.1.15.06.24.17.28.33.02.09.06.16.11.21s.11.07.21.07c.11,0,.19-.02.24-.09.06-.06.07-.13.06-.23-.06-.34-.22-.6-.47-.75-.26-.16-.63-.24-1.11-.24h-.8c-.62,0-1.08.13-1.37.43s-.44.75-.44,1.37v1.11c0,.62.15,1.08.44,1.37s.75.44,1.37.44h.8ZM21.16,141.3l1.41-1.84,1.42,1.85c.12.17.27.18.44.05.16-.12.17-.27.05-.43l-1.48-1.92,1.42-1.79c.12-.16.11-.3-.05-.43-.16-.13-.3-.11-.44.05l-1.31,1.67-1.29-1.67c-.12-.16-.27-.18-.43-.05-.16.12-.18.27-.05.43l1.34,1.73-1.51,1.97c-.12.16-.1.3.06.44.16.12.3.1.43-.06M17.53,137.33c.45,0,.77.09.94.26.17.17.26.49.26.94v.18h-3.19v-.18c0-.46.09-.78.26-.95s.49-.26.94-.24h.8ZM19.03,139.32c.21,0,.3-.1.3-.3v-.49c0-.62-.15-1.08-.44-1.37s-.75-.44-1.37-.44h-.8c-.62,0-1.08.13-1.37.43s-.44.75-.44,1.39v1.11c0,.62.15,1.07.44,1.36.29.29.75.44,1.37.44h.8c.55,0,.97-.1,1.27-.29s.46-.5.52-.9c.01-.11,0-.18-.06-.23-.05-.05-.13-.09-.23-.09s-.17.02-.22.07-.09.12-.11.22c-.04.22-.15.38-.33.47-.18.09-.46.13-.85.13h-.8c-.45,0-.75-.09-.94-.26-.17-.17-.26-.49-.26-.92v-.32h3.52Z"/>
</svg>